# xmcd
#
# Track frame offsets:
#	150
#	23098
#	40353
#	56678
#	68735
#	85905
#	120345
#	139993
#	159145
#	174193
#	198415
#	214878
#	237543
#	250530
#	257165
#	269775
#	295895
#
# Disc length: 4062 seconds
#
# Revision: 1
# Processed by: cddbd v1.5.2PL0 Copyright (c) Steve Scherf et al.
# Submitted via: audiograbber 1.83.01
#
DISCID=f60fdc11
DTITLE=Klinkers and Medeklinkers - Over drinken en doordouwen
DYEAR=1900
DGENRE=Pop
TTITLE0=Klinkers and Medeklinkers - Endless fight
TTITLE1=Klinkers and Medeklinkers - Just
TTITLE2=Klinkers and Medeklinkers - A perfume called money
TTITLE3=Klinkers and Medeklinkers - Torotela 
TTITLE4=Klinkers and Medeklinkers - Still need some practise
TTITLE5=Klinkers and Medeklinkers - It can happen
TTITLE6=Klinkers and Medeklinkers - Hang in there 
TTITLE7=Klinkers and Medeklinkers - Razor blade
TTITLE8=Klinkers and Medeklinkers - Hug you 'n' squeeze you
TTITLE9=Klinkers and Medeklinkers - I'm gonna call you
TTITLE10=Klinkers and Medeklinkers - Born under a bad sign
TTITLE11=Klinkers and Medeklinkers - Louise
TTITLE12=Klinkers and Medeklinkers - Gonna find me a new love
TTITLE13=Klinkers and Medeklinkers - BM Cricket
TTITLE14=Klinkers and Medeklinkers - Soundcheck
TTITLE15=Klinkers and Medeklinkers - Shoarma for three
TTITLE16=Klinkers and Medeklinkers - Crazy
EXTD=
EXTT0=
EXTT1=
EXTT2=
EXTT3=
EXTT4=
EXTT5=
EXTT6=
EXTT7=
EXTT8=
EXTT9=
EXTT10=
EXTT11=
EXTT12=
EXTT13=
EXTT14=
EXTT15=
EXTT16=
PLAYORDER=
